<svg xmlns="http://www.w3.org/2000/svg" xmlns:xlink="http://www.w3.org/1999/xlink" version="1.1" style="shape-rendering:geometricPrecision; text-rendering:geometricPrecision; image-rendering:optimizeQuality; fill-rule:evenodd; clip-rule:evenodd" viewBox="142.5 123.14 226 264.61">
<g><path style="opacity:0.984" fill="#c6c7cc" d="M 267.5,123.5 C 279.235,122.377 290.569,123.877 301.5,128C 319.388,137.033 335.222,148.867 349,163.5C 352.5,176 348,180.5 335.5,177C 320.363,161.266 302.696,149.266 282.5,141C 280.167,140.333 277.833,140.333 275.5,141C 274.663,142.011 274.33,143.178 274.5,144.5C 283.023,147.177 291.023,151.01 298.5,156C 316.214,168.045 331.714,182.545 345,199.5C 345.499,203.486 345.666,207.486 345.5,211.5C 349.603,210.769 353.103,211.769 356,214.5C 361.084,222.667 365.084,231.334 368,240.5C 368.667,247.833 368.667,255.167 368,262.5C 364.542,270.648 358.375,274.315 349.5,273.5C 349.52,286.147 343.186,292.48 330.5,292.5C 330.52,305.147 324.186,311.48 311.5,311.5C 311.48,324.186 305.147,330.52 292.5,330.5C 292.48,343.186 286.147,349.52 273.5,349.5C 273.492,361.51 267.492,368.177 255.5,369.5C 254.981,376.373 251.981,381.873 246.5,386C 230.542,389.775 215.542,387.442 201.5,379C 186.966,370.304 173.799,359.804 162,347.5C 158.5,335 163,330.5 175.5,334C 189.21,348.044 204.876,359.377 222.5,368C 226.639,370.067 230.973,370.734 235.5,370C 236.337,368.989 236.67,367.822 236.5,366.5C 218.919,359.76 203.253,349.927 189.5,337C 182.302,330.136 175.468,322.97 169,315.5C 168.501,311.514 168.334,307.514 168.5,303.5C 165.482,303.665 162.482,303.498 159.5,303C 151.761,293.357 146.261,282.523 143,270.5C 142.095,262.089 142.428,253.755 144,245.5C 148.286,239.46 154.12,236.793 161.5,237.5C 161.48,224.853 167.814,218.52 180.5,218.5C 180.48,205.853 186.814,199.52 199.5,199.5C 199.52,186.814 205.853,180.48 218.5,180.5C 218.52,167.814 224.853,161.48 237.5,161.5C 237.549,148.784 243.882,142.451 256.5,142.5C 255.826,133.499 259.493,127.166 267.5,123.5 Z M 256.5,159.5 C 257.496,159.414 258.329,159.748 259,160.5C 259.309,161.766 259.809,162.933 260.5,164C 255.352,164.809 254.018,163.309 256.5,159.5 Z M 287.5,172.5 C 303.901,184.066 318.568,197.566 331.5,213C 334.146,213.497 336.813,213.664 339.5,213.5C 339.665,217.182 339.499,220.848 339,224.5C 318.269,210.602 301.102,193.269 287.5,172.5 Z M 237.5,178.5 C 238.496,178.414 239.329,178.748 240,179.5C 242.378,185.08 240.878,185.914 235.5,182C 236.305,180.887 236.972,179.721 237.5,178.5 Z M 267.5,192.5 C 267.897,191.475 268.563,191.308 269.5,192C 286.591,204.423 301.757,218.923 315,235.5C 316.934,238.034 318.268,240.701 319,243.5C 299.305,228.971 282.138,211.971 267.5,192.5 Z M 219.5,197.5 C 224.168,203.669 223.168,204.836 216.5,201C 217.365,199.641 218.365,198.474 219.5,197.5 Z M 248.5,211.5 C 248.897,210.475 249.563,210.308 250.5,211C 270.565,225.058 287.065,242.225 300,262.5C 279.64,248.639 262.473,231.639 248.5,211.5 Z M 200.5,216.5 C 205.253,222.961 204.253,223.961 197.5,219.5C 198.34,218.265 199.34,217.265 200.5,216.5 Z M 230.5,230.5 C 250.833,243.5 267.5,260.167 280.5,280.5C 267.5,260.167 250.833,243.5 230.5,230.5 Z M 181.5,235.5 C 182.771,237.109 183.771,238.942 184.5,241C 182.075,241.246 180.075,240.412 178.5,238.5C 179.34,237.265 180.34,236.265 181.5,235.5 Z M 210.5,248.5 C 231.29,262.123 248.624,279.29 262.5,300C 261.833,300.667 261.167,300.667 260.5,300C 240.559,285.894 223.893,268.728 210.5,248.5 Z M 346.5,250.5 C 352.223,251.568 352.723,253.568 348,256.5C 347.187,254.564 346.687,252.564 346.5,250.5 Z M 162.5,254.5 C 165.779,260.748 164.779,261.748 159.5,257.5C 160.34,256.265 161.34,255.265 162.5,254.5 Z M 191.5,267.5 C 211.625,281.792 228.959,298.958 243.5,319C 242.833,319.667 242.167,319.667 241.5,319C 221.559,304.894 204.893,287.728 191.5,267.5 Z M 326.5,270.5 C 326.56,269.957 326.893,269.624 327.5,269.5C 333.248,270.61 333.748,272.61 329,275.5C 328.243,273.685 327.41,272.019 326.5,270.5 Z M 172.5,287.5 C 193.167,300.833 210.167,317.833 223.5,338.5C 208.129,327.634 194.129,315.134 181.5,301C 178.854,300.503 176.187,300.336 173.5,300.5C 173.769,296.069 173.436,291.735 172.5,287.5 Z M 307.5,289.5 C 307.56,288.957 307.893,288.624 308.5,288.5C 314.334,289.587 314.834,291.587 310,294.5C 309.243,292.685 308.41,291.019 307.5,289.5 Z M 288.5,307.5 C 290.512,308.228 292.512,309.062 294.5,310C 291.189,314.524 289.189,313.691 288.5,307.5 Z M 269.5,326.5 C 271.512,327.228 273.512,328.062 275.5,329C 271.969,333.732 269.969,332.898 269.5,326.5 Z M 250.5,347.5 C 250.735,346.903 251.235,346.57 252,346.5C 257.481,346.82 257.981,348.487 253.5,351.5C 252.141,350.376 251.141,349.042 250.5,347.5 Z"/></g>
</svg>