<?xml version="1.0" encoding="UTF-8"?>
<!DOCTYPE svg PUBLIC "-//W3C//DTD SVG 1.1//EN" "http://www.w3.org/Graphics/SVG/1.1/DTD/svg11.dtd">
<svg xmlns="http://www.w3.org/2000/svg" version="1.1" width="512px" height="512px" style="shape-rendering:geometricPrecision; text-rendering:geometricPrecision; image-rendering:optimizeQuality; fill-rule:evenodd; clip-rule:evenodd" xmlns:xlink="http://www.w3.org/1999/xlink">
<g><path style="opacity:1" fill="#fec928" d="M 458.5,34.5 C 444.173,28.3326 433.673,32.3326 427,46.5C 426.5,56.4944 426.334,66.4944 426.5,76.5C 426.167,76.5 425.833,76.5 425.5,76.5C 419.833,70.5 414.167,64.5 408.5,58.5C 408.816,50.2476 408.482,42.081 407.5,34C 412.071,15.0479 423.404,9.38123 441.5,17C 447.37,22.7019 453.036,28.5353 458.5,34.5 Z"/></g>
<g><path style="opacity:0.998" fill="#fed44e" d="M 103.5,62.5 C 96.7751,68.2228 90.7751,74.5561 85.5,81.5C 84.8333,81.8333 84.1667,82.1667 83.5,82.5C 74.0087,81.67 64.342,81.17 54.5,81C 41.7307,74.2933 37.7307,64.1267 42.5,50.5C 51.3279,41.5049 59.9946,32.3382 68.5,23C 77.579,16.1035 86.9123,15.7702 96.5,22C 98.7272,24.5641 100.561,27.3974 102,30.5C 103.403,41.1023 103.903,51.769 103.5,62.5 Z"/></g>
<g><path style="opacity:0.999" fill="#fed44f" d="M 458.5,34.5 C 468.828,43.9947 478.661,53.9947 488,64.5C 494.391,82.5243 488.225,93.191 469.5,96.5C 461.536,95.5623 453.536,95.229 445.5,95.5C 438.833,89.5 432.5,83.1667 426.5,76.5C 426.334,66.4944 426.5,56.4944 427,46.5C 433.673,32.3326 444.173,28.3326 458.5,34.5 Z"/></g>
<g><path style="opacity:0.996" fill="#fec928" d="M 42.5,50.5 C 37.7307,64.1267 41.7307,74.2933 54.5,81C 64.342,81.17 74.0087,81.67 83.5,82.5C 78.1667,88.1667 72.8333,93.8333 67.5,99.5C 57.2602,99.4628 46.9268,99.2961 36.5,99C 23.4208,93.1264 19.2541,83.2931 24,69.5C 29.671,62.6627 35.8376,56.3293 42.5,50.5 Z"/></g>
<g><path style="opacity:1" fill="#a45519" d="M 408.5,58.5 C 414.167,64.5 419.833,70.5 425.5,76.5C 425.649,77.552 425.483,78.552 425,79.5C 405.138,100.203 384.638,119.87 363.5,138.5C 357.167,132.833 351.167,126.833 345.5,120.5C 366.5,99.8333 387.5,79.1667 408.5,58.5 Z"/></g>
<g><path style="opacity:1" fill="#bf6724" d="M 103.5,62.5 C 124.427,82.8111 145.094,103.144 165.5,123.5C 159.5,130.167 153.167,136.5 146.5,142.5C 127.134,121.134 106.8,100.8 85.5,81.5C 90.7751,74.5561 96.7751,68.2228 103.5,62.5 Z"/></g>
<g><path style="opacity:0.998" fill="#ffca29" d="M 310.5,86.5 C 315.54,99.5705 312.54,110.237 301.5,118.5C 298.958,119.624 296.292,120.458 293.5,121C 292.333,121.5 291.5,122.333 291,123.5C 289.203,121.844 287.036,120.844 284.5,120.5C 283.808,121.025 283.308,121.692 283,122.5C 282.16,119.536 281.16,119.203 280,121.5C 277.68,118.852 275.014,116.519 272,114.5C 264.894,104.81 264.227,94.8098 270,84.5C 284.141,70.8257 297.641,71.4924 310.5,86.5 Z"/></g>
<g><path style="opacity:0.996" fill="#ffca28" d="M 209.5,120.5 C 203.856,117.588 200.356,112.921 199,106.5C 197.992,100.59 198.492,94.9234 200.5,89.5C 213.274,74.383 226.774,73.7164 241,87.5C 246.796,99.1058 245.296,109.606 236.5,119C 227.781,124.376 218.781,124.876 209.5,120.5 Z"/></g>
<g><path style="opacity:1" fill="#bf6825" d="M 425.5,76.5 C 425.833,76.5 426.167,76.5 426.5,76.5C 432.5,83.1667 438.833,89.5 445.5,95.5C 424.833,116.833 403.833,137.833 382.5,158.5C 376.167,151.833 369.833,145.167 363.5,138.5C 384.638,119.87 405.138,100.203 425,79.5C 425.483,78.552 425.649,77.552 425.5,76.5 Z"/></g>
<g><path style="opacity:1" fill="#a45519" d="M 85.5,81.5 C 106.8,100.8 127.134,121.134 146.5,142.5C 141.26,149.05 135.593,155.05 129.5,160.5C 108.196,140.863 87.5296,120.53 67.5,99.5C 72.8333,93.8333 78.1667,88.1667 83.5,82.5C 84.1667,82.1667 84.8333,81.8333 85.5,81.5 Z"/></g>
<g><path style="opacity:0.998" fill="#fed44f" d="M 310.5,86.5 C 322.167,97.8333 333.833,109.167 345.5,120.5C 351.167,126.833 357.167,132.833 363.5,138.5C 369.833,145.167 376.167,151.833 382.5,158.5C 393.833,170.167 405.167,181.833 416.5,193.5C 410.005,191.51 403.339,191.01 396.5,192C 392.05,194.619 388.05,197.786 384.5,201.5C 379.167,196.833 373.833,192.167 368.5,187.5C 359.833,178.167 350.833,169.167 341.5,160.5C 333.5,151.833 325.167,143.5 316.5,135.5C 311.894,129.556 306.894,123.89 301.5,118.5C 312.54,110.237 315.54,99.5705 310.5,86.5 Z"/></g>
<g><path style="opacity:0.998" fill="#fed44f" d="M 200.5,89.5 C 198.492,94.9234 197.992,100.59 199,106.5C 200.356,112.921 203.856,117.588 209.5,120.5C 204.735,126.354 199.735,132.021 194.5,137.5C 185.167,146.167 176.167,155.167 167.5,164.5C 159.5,172.833 151.5,181.167 143.5,189.5C 142.761,189.369 142.094,189.536 141.5,190C 136.63,194.702 131.963,199.535 127.5,204.5C 119.98,194.438 109.98,191.105 97.5,194.5C 107.745,182.917 118.411,171.584 129.5,160.5C 135.593,155.05 141.26,149.05 146.5,142.5C 153.167,136.5 159.5,130.167 165.5,123.5C 166.239,123.631 166.906,123.464 167.5,123C 178.006,111.328 189.006,100.161 200.5,89.5 Z"/></g>
<g><path style="opacity:0.561" fill="#fcfdfc" d="M 285.5,122.5 C 286.833,123.167 286.833,123.167 285.5,122.5 Z"/></g>
<g><path style="opacity:1" fill="#607d8b" d="M 316.5,135.5 C 325.167,143.5 333.5,151.833 341.5,160.5C 308.976,194.524 275.976,228.024 242.5,261C 178.885,324.117 115.218,386.95 51.5,449.5C 60.7488,415.918 70.9155,382.584 82,349.5C 120.009,314.989 157.843,280.323 195.5,245.5C 178.484,226.486 161.151,207.819 143.5,189.5C 151.5,181.167 159.5,172.833 167.5,164.5C 168.552,164.351 169.552,164.517 170.5,165C 188.626,182.457 206.792,199.957 225,217.5C 235.544,209.644 245.377,200.977 254.5,191.5C 275.465,173.203 296.132,154.537 316.5,135.5 Z"/></g>
<g><path style="opacity:0.999" fill="#90a4ad" d="M 194.5,137.5 C 214.176,155.842 234.176,173.842 254.5,191.5C 245.377,200.977 235.544,209.644 225,217.5C 206.792,199.957 188.626,182.457 170.5,165C 169.552,164.517 168.552,164.351 167.5,164.5C 176.167,155.167 185.167,146.167 194.5,137.5 Z"/></g>
<g><path style="opacity:0.999" fill="#8fa3ad" d="M 341.5,160.5 C 350.833,169.167 359.833,178.167 368.5,187.5C 350.183,206.486 332.183,225.819 314.5,245.5C 352.157,280.323 389.991,314.989 428,349.5C 438.247,381.657 448.413,413.824 458.5,446C 458.472,447.07 458.139,447.903 457.5,448.5C 400.647,391.813 343.647,335.313 286.5,279C 285.5,278.333 284.5,278.333 283.5,279C 273.898,288.761 264.898,298.927 256.5,309.5C 253.606,310.882 251.106,312.882 249,315.5C 217.145,350.686 184.978,385.519 152.5,420C 119.99,430.67 87.3237,440.837 54.5,450.5C 53.2739,450.48 52.2739,450.147 51.5,449.5C 115.218,386.95 178.885,324.117 242.5,261C 275.976,228.024 308.976,194.524 341.5,160.5 Z"/></g>
<g><path style="opacity:0.997" fill="#ffca28" d="M 416.5,193.5 C 429.792,203.872 431.958,216.206 423,230.5C 411.162,241.058 399.329,241.058 387.5,230.5C 380.777,221.435 379.777,211.768 384.5,201.5C 388.05,197.786 392.05,194.619 396.5,192C 403.339,191.01 410.005,191.51 416.5,193.5 Z"/></g>
<g><path style="opacity:0.998" fill="#ffca28" d="M 127.5,204.5 C 132.16,214.885 130.994,224.551 124,233.5C 111.758,242.007 100.091,241.34 89,231.5C 80.9611,216.656 83.7945,204.323 97.5,194.5C 109.98,191.105 119.98,194.438 127.5,204.5 Z"/></g>
<g><path style="opacity:1" fill="#607d8b" d="M 457.5,448.5 C 448.728,446.856 440.062,444.689 431.5,442C 406.808,434.269 382.141,426.436 357.5,418.5C 323.444,382.447 289.777,346.114 256.5,309.5C 264.898,298.927 273.898,288.761 283.5,279C 284.5,278.333 285.5,278.333 286.5,279C 343.647,335.313 400.647,391.813 457.5,448.5 Z"/></g>
</svg>
