<?xml version="1.0" encoding="UTF-8"?>
<svg xmlns="http://www.w3.org/2000/svg" xmlns:xlink="http://www.w3.org/1999/xlink" width="px" height="px" viewBox="0 0 256 256" version="1.1">
<defs>
<filter id="alpha" filterUnits="objectBoundingBox" x="0%" y="0%" width="100%" height="100%">
  <feColorMatrix type="matrix" in="SourceGraphic" values="0 0 0 0 1 0 0 0 0 1 0 0 0 0 1 0 0 0 1 0"/>
</filter>
<mask id="mask0">
  <g filter="url(#alpha)">
<rect x="0" y="0" width="256" height="256" style="fill:rgb(0%,0%,0%);fill-opacity:0.984314;stroke:none;"/>
  </g>
</mask>
<clipPath id="clip1">
  <rect x="0" y="0" width="256" height="256"/>
</clipPath>
<g id="surface5" clip-path="url(#clip1)">
<path style=" stroke:none;fill-rule:evenodd;fill:rgb(85.098039%,85.098039%,85.098039%);fill-opacity:1;" d="M 175.25 2.25 C 185.414062 1.28125 192 5.617188 195 15.25 C 196.199219 20.992188 195.03125 26.160156 191.5 30.75 C 178.992188 43.171875 166.578125 55.671875 154.25 68.25 C 164.992188 79.242188 175.828125 90.160156 186.75 101 C 187.082031 101.332031 187.417969 101.332031 187.75 101 C 200.082031 88.667969 212.417969 76.332031 224.75 64 C 228.039062 61.136719 231.871094 59.886719 236.25 60.25 C 244.34375 60.253906 249.757812 64.085938 252.5 71.75 C 254.128906 77.765625 253.128906 83.265625 249.5 88.25 C 236.917969 100.832031 224.332031 113.417969 211.75 126 C 216.535156 130.449219 220.949219 135.199219 225 140.25 C 228.179688 147.355469 227.679688 154.191406 223.5 160.75 C 218.335938 166.527344 211.917969 168.609375 204.25 167 C 202.140625 166.445312 200.140625 165.613281 198.25 164.5 C 161.835938 128.253906 125.753906 92.003906 90 55.75 C 85.878906 45.835938 87.960938 37.585938 96.25 31 C 101.558594 28.625 107.058594 28.125 112.75 29.5 C 115.152344 30.449219 117.316406 31.785156 119.25 33.5 C 122.667969 36.917969 126.082031 40.332031 129.5 43.75 C 142.082031 31.167969 154.667969 18.582031 167.25 6 C 169.644531 4.050781 172.308594 2.800781 175.25 2.25 Z M 175.25 2.25 "/>
</g>
<mask id="mask1">
  <g filter="url(#alpha)">
<rect x="0" y="0" width="256" height="256" style="fill:rgb(0%,0%,0%);fill-opacity:0.992157;stroke:none;"/>
  </g>
</mask>
<clipPath id="clip2">
  <rect x="0" y="0" width="256" height="256"/>
</clipPath>
<g id="surface8" clip-path="url(#clip2)">
<path style=" stroke:none;fill-rule:evenodd;fill:rgb(85.098039%,85.098039%,85.098039%);fill-opacity:1;" d="M 85.75 60.75 C 86.597656 60.671875 87.433594 60.753906 88.25 61 C 123.332031 96.75 158.75 132.167969 194.5 167.25 C 194.832031 168.082031 194.832031 168.917969 194.5 169.75 C 187.25 177 180 184.25 172.75 191.5 C 149.230469 211.449219 122.730469 216.617188 93.25 207 C 69.683594 197.433594 54.101562 180.519531 46.5 156.25 C 40.09375 130.78125 44.761719 107.613281 60.5 86.75 C 68.835938 77.996094 77.253906 69.332031 85.75 60.75 Z M 85.75 60.75 "/>
</g>
<mask id="mask2">
  <g filter="url(#alpha)">
<rect x="0" y="0" width="256" height="256" style="fill:rgb(0%,0%,0%);fill-opacity:0.972549;stroke:none;"/>
  </g>
</mask>
<clipPath id="clip3">
  <rect x="0" y="0" width="256" height="256"/>
</clipPath>
<g id="surface11" clip-path="url(#clip3)">
<path style=" stroke:none;fill-rule:evenodd;fill:rgb(85.098039%,85.098039%,85.098039%);fill-opacity:1;" d="M 43.25 168.75 C 44.394531 168.621094 45.480469 168.789062 46.5 169.25 C 55.082031 187.167969 68.332031 200.417969 86.25 209 C 86.796875 210.03125 86.878906 211.117188 86.5 212.25 C 79.667969 216.484375 72.253906 217.898438 64.25 216.5 C 62.386719 216.074219 60.554688 215.738281 58.75 215.5 C 47.25 227 35.75 238.5 24.25 250 C 18.535156 254.128906 12.703125 254.296875 6.75 250.5 C 2.128906 245.828125 1.042969 240.414062 3.5 234.25 C 4.167969 233.25 4.832031 232.25 5.5 231.25 C 17 219.75 28.5 208.25 40 196.75 C 38.179688 189.242188 38.347656 181.742188 40.5 174.25 C 41.160156 172.265625 42.078125 170.429688 43.25 168.75 Z M 43.25 168.75 "/>
</g>
</defs>
<g id="surface1">
<use xlink:href="#surface5" mask="url(#mask0)"/>
<use xlink:href="#surface8" mask="url(#mask1)"/>
<use xlink:href="#surface11" mask="url(#mask2)"/>
</g>
</svg>
