<?xml version="1.0" standalone="no"?>
<!DOCTYPE svg PUBLIC "-//W3C//DTD SVG 1.0//EN" "http://www.w3.org/TR/2001/REC-SVG-20010904/DTD/svg10.dtd">
<svg xmlns="http://www.w3.org/2000/svg" xmlns:xlink="http://www.w3.org/1999/xlink" id="body_1" width="200" height="200">

<g transform="matrix(0.9478673 0 0 0.9478673 0 0)">
	<g transform="matrix(0.95045054 0 0 0.95045054 0 0)">
		<g transform="matrix(0.85057473 0 0 0.85057473 0 0)">
			<g transform="matrix(0.8006136 0 0 0.8006136 0 0)">
				<g transform="matrix(0.7494253 0 0 0.7494253 0 0)">
					<g transform="matrix(0.8496094 0 0 0.8496094 0 0)">
						<g>
                            <path d="M202.5 -0.5C 237.833 -0.5 273.167 -0.5 308.5 -0.5C 311.097 2.35573 312.93 5.68906 314 9.5C 316.333 21.1667 318.667 32.8333 321 44.5C 332.78 49.098 344.446 54.098 356 59.5C 366.823 52.6822 377.656 45.8489 388.5 39C 396.95 36.1947 404.617 37.5281 411.5 43C 432.06 62.8922 451.894 83.3922 471 104.5C 472.815 110.187 472.815 115.854 471 121.5C 464.151 132.344 457.318 143.177 450.5 154C 455.902 165.554 460.902 177.22 465.5 189C 477.167 191.333 488.833 193.667 500.5 196C 504.822 197.157 508.489 199.324 511.5 202.5C 511.5 237.167 511.5 271.833 511.5 306.5C 508.489 309.676 504.822 311.843 500.5 313C 488.833 315.333 477.167 317.667 465.5 320C 460.902 331.78 455.902 343.446 450.5 355C 457.318 365.823 464.151 376.656 471 387.5C 473.436 395.885 472.103 403.552 467 410.5C 447.108 431.06 426.608 450.894 405.5 470C 399.833 472 394.167 472 388.5 470C 377.061 462.892 365.894 455.392 355 447.5C 354.333 413.833 354.333 380.167 355 346.5C 396.056 298.094 402.39 245.428 374 188.5C 342.087 137.294 295.921 114.461 235.5 120C 181.52 130.734 145.02 161.901 126 213.5C 111.906 263.375 121.906 307.708 156 346.5C 156.667 380.167 156.667 413.833 156 447.5C 145.106 455.392 133.939 462.892 122.5 470C 116.015 472.23 109.682 471.897 103.5 469C 81.9714 447.805 60.8048 426.305 40 404.5C 38.0807 398.822 38.0807 393.156 40 387.5C 46.8489 376.656 53.6822 365.823 60.5 355C 55.098 343.446 50.098 331.78 45.5 320C 33.8333 317.667 22.1667 315.333 10.5 313C 6.17795 311.843 2.51128 309.676 -0.5 306.5C -0.5 271.833 -0.5 237.167 -0.5 202.5C 2.51128 199.324 6.17795 197.157 10.5 196C 22.1667 193.667 33.8333 191.333 45.5 189C 50.098 177.22 55.098 165.554 60.5 154C 53.6822 143.177 46.8489 132.344 40 121.5C 37.9323 115.041 38.2656 108.708 41 102.5C 62.1948 80.9714 83.6948 59.8048 105.5 39C 111.167 37 116.833 37 122.5 39C 133.344 45.8489 144.177 52.6822 155 59.5C 166.554 54.098 178.22 49.098 190 44.5C 192.333 32.8333 194.667 21.1667 197 9.5C 198.07 5.68906 199.903 2.35573 202.5 -0.5z" stroke="none" fill="#D9D9D9" fill-rule="nonzero" fill-opacity="0.9882353" />
						</g>
						<g>
                            <path d="M293.5 511.5C 268.167 511.5 242.833 511.5 217.5 511.5C 214.621 508.408 212.787 504.741 212 500.5C 211.667 448.167 211.333 395.833 211 343.5C 175.53 324.581 157.363 294.914 156.5 254.5C 157.339 216.301 174.005 187.467 206.5 168C 211.5 167.333 216.5 167.333 221.5 168C 224.667 169.833 227.167 172.333 229 175.5C 232.772 197.072 235.939 218.739 238.5 240.5C 249.833 240.5 261.167 240.5 272.5 240.5C 275.061 218.739 278.228 197.072 282 175.5C 283.833 172.333 286.333 169.833 289.5 168C 294.5 167.333 299.5 167.333 304.5 168C 336.995 187.467 353.661 216.301 354.5 254.5C 353.637 294.914 335.47 324.581 300 343.5C 299.667 395.833 299.333 448.167 299 500.5C 298.213 504.741 296.379 508.408 293.5 511.5z" stroke="none" fill="#D9D9D9" fill-rule="nonzero" fill-opacity="0.9843137" />
						</g>
					</g>
				</g>
			</g>
		</g>
	</g>
</g>
</svg>